<svg xmlns="http://www.w3.org/2000/svg" viewBox="0 0 16 16" width="512" height="512" shape-rendering="crispEdges">
  <!-- 16x16 pixel grid, scaled up -->
  <!-- Rennie: a cute house character, pixel art style -->
  <!-- Color: flat teal #4ecca3 -->
  
  <!-- Roof -->
  <rect x="7" y="1" width="2" height="1" fill="#4ecca3"/>
  <rect x="6" y="2" width="4" height="1" fill="#4ecca3"/>
  <rect x="5" y="3" width="6" height="1" fill="#4ecca3"/>
  <rect x="4" y="4" width="8" height="1" fill="#4ecca3"/>
  <rect x="3" y="5" width="10" height="1" fill="#4ecca3"/>
  
  <!-- Chimney -->
  <rect x="11" y="2" width="1" height="3" fill="#4ecca3"/>
  
  <!-- Body -->
  <rect x="3" y="6" width="10" height="6" fill="#4ecca3"/>
  
  <!-- Eyes (black squares) -->
  <rect x="5" y="7" width="2" height="2" fill="#000000"/>
  <rect x="9" y="7" width="2" height="2" fill="#000000"/>
  
  <!-- Eye shine (tiny white pixel) -->
  <rect x="5" y="7" width="1" height="1" fill="#ffffff" opacity="0.9"/>
  <rect x="9" y="7" width="1" height="1" fill="#ffffff" opacity="0.9"/>
  
  <!-- Door (belly) -->
  <rect x="7" y="10" width="2" height="2" fill="#3ab88e"/>
  
  <!-- Legs -->
  <rect x="4" y="12" width="2" height="2" fill="#4ecca3"/>
  <rect x="10" y="12" width="2" height="2" fill="#4ecca3"/>
  
  <!-- Feet -->
  <rect x="3" y="14" width="3" height="1" fill="#4ecca3"/>
  <rect x="10" y="14" width="3" height="1" fill="#4ecca3"/>
</svg>
